# xmcd CD database file
#
# Track frame offsets:
#	150
#	23165
#	35828
#	62946
#	83842
#	96758
#	122395
#	138715
#	167631
#	194250
#	210670
#
# Disc length: 3035 seconds
#
# Revision: 0
# Processed by: cddbd v1.5.2PL0 Copyright (c) Steve Scherf et al.
# Submitted via: CDex 1.70beta2
#
DISCID=980bd90b
DTITLE=Denis Colin et Ornette - Univers Nino
DYEAR=2014
DGENRE=Jazz
TTITLE0=UNIVERS NINO - INTRODUCTION
TTITLE1=UNIVERS NINO - MIRZA
TTITLE2=UNIVERS NINO - MOBY DICK
TTITLE3=UNIVERS NINO - LE BLUES DES RUES DESERTES
TTITLE4=UNIVERS NINO - LES CORNICHONS
TTITLE5=UNIVERS NINO - THE GARDEN
TTITLE6=UNIVERS NINO - LA DESABUSION
TTITLE7=UNIVERS NINO - METRONOMIE
TTITLE8=UNIVERS NINO - L ARBRE NOIR
TTITLE9=UNIVERS NINO - VIVA LA CAMPAGNA
TTITLE10=UNIVERS NINO - LA RUA MADUREIRA
EXTD=YEAR: 2014
EXTT0=
EXTT1=
EXTT2=
EXTT3=
EXTT4=
EXTT5=
EXTT6=
EXTT7=
EXTT8=
EXTT9=
EXTT10=
PLAYORDER=
